<?xml version="1.0" encoding="UTF-8"?> <svg xmlns="http://www.w3.org/2000/svg" height="512px" viewBox="0 -23 512 512" width="512px" class=""> <g> <path d="m293.4375 179.769531h36.0625c.621094 43.183594 35.921875 78.125 79.25 78.125 36.9375 0 68.660156-25.085937 77.140625-61.011719.953125-4.03125-1.546875-8.070312-5.578125-9.023437-4.03125-.949219-8.070312 1.546875-9.019531 5.578125-6.875 29.121094-32.59375 49.457031-62.542969 49.457031-35.445312 0-64.28125-28.835937-64.28125-64.277343 0-20.101563 23.136719-65.246094 61.890625-120.757813.757813-1.085937 1.824219-1.25 2.390625-1.25s1.632812.164063 2.390625 1.25c14.308594 20.496094 48.699219 71.785156 59.019531 105.328125 1.21875 3.960938 5.414063 6.179688 9.375 4.960938 3.960938-1.214844 6.183594-5.414063 4.960938-9.375-7.195313-23.390626-24.480469-53.632813-40.539063-78.808594h3.265625c22.046875 0 39.980469-17.9375 39.980469-39.984375 0-22.042969-17.9375-39.980469-39.980469-39.980469h-321.222656c-4.140625 0-7.5 3.359375-7.5 7.5s3.359375 7.5 7.5 7.5h321.222656c13.773438 0 24.980469 11.207031 24.980469 24.980469 0 13.777343-11.207031 24.984375-24.980469 24.984375h-13.066406c-3.871094-5.796875-7.511719-11.101563-10.714844-15.691406-3.351562-4.800782-8.84375-7.664063-14.691406-7.664063-5.851562 0-11.34375 2.863281-14.691406 7.664063-3.3125 4.746093-6.9375 10.03125-10.722656 15.691406h-152.808594c-28.710938 0-52.066406 23.355468-52.066406 52.0625 0 28.710937 23.355468 52.066406 52.066406 52.066406h22.730468c16.15625 0 29.296876 13.140625 29.296876 29.296875 0 16.152344-13.144532 29.296875-29.296876 29.296875h-80.378906c-20.558594 0-40.535156-7.292969-56.253906-20.539062l-21.558594-18.164063c-18.421875-15.523437-41.832031-24.070313-65.921875-24.070313h-21.644531c-4.140625 0-7.5 3.359376-7.5 7.5 0 4.144532 3.359375 7.5 7.5 7.5h21.644531c20.554688 0 40.535157 7.296876 56.253907 20.539063l21.558593 18.164063c18.421875 15.523437 41.832031 24.070312 65.921875 24.070312h80.378906c24.425782 0 44.296876-19.871094 44.296876-44.296875 0-6.648437-1.480469-12.953125-4.117188-18.621094zm-62.914062-25.675781c-16.011719 0-29.679688-10.207031-34.851563-24.457031h43.792969c4.140625 0 7.5-3.355469 7.5-7.5 0-4.140625-3.359375-7.5-7.5-7.5h-45.917969c1.234375-19.324219 17.34375-34.671875 36.976563-34.671875h143.007812c-7.054688 11.050781-14.222656 22.894531-20.675781 34.671875h-76.976563c-4.144531 0-7.5 3.359375-7.5 7.5 0 4.144531 3.355469 7.5 7.5 7.5h69.167969c-6.203125 12.613281-11.117187 24.699219-13.664063 35.132812h-49.332031c-7.75-6.644531-17.804687-10.675781-28.792969-10.675781zm0 0" data-original="#000000" class="active-path" data-old_color="#ffb800" fill="#ffb800"></path> <path d="m7.5 15.003906h80.050781c4.144531 0 7.5-3.359375 7.5-7.5 0-4.144531-3.355469-7.49999975-7.5-7.49999975h-80.050781c-4.140625 0-7.5 3.35546875-7.5 7.49999975 0 4.140625 3.359375 7.5 7.5 7.5zm0 0" data-original="#000000" class="active-path" data-old_color="#ffb800" fill="#ffb800"></path> <path d="m349.765625 258.28125c-2.628906-3.765625-6.9375-6.015625-11.53125-6.015625-4.589844 0-8.902344 2.25-11.53125 6.015625-6.691406 9.585938-16.425781 24.148438-24.808594 39.105469-11.023437 19.671875-16.378906 34.054687-16.378906 43.96875 0 29.070312 23.648437 52.722656 52.71875 52.722656 29.074219 0 52.722656-23.652344 52.722656-52.722656 0-9.914063-5.359375-24.296875-16.382812-43.96875-8.382813-14.957031-18.117188-29.519531-24.808594-39.105469zm-11.53125 120.796875c-20.800781 0-37.722656-16.921875-37.722656-37.722656 0-11.804688 14.433593-39.863281 37.722656-73.382813 23.289063 33.519532 37.722656 61.578125 37.722656 73.382813 0 20.800781-16.921875 37.722656-37.722656 37.722656zm0 0" data-original="#000000" class="active-path" data-old_color="#ffb800" fill="#ffb800"></path> <path d="m495.617188 369.449219c-8.378907-14.957031-18.117188-29.519531-24.808594-39.105469-2.628906-3.765625-6.941406-6.015625-11.53125-6.015625s-8.902344 2.25-11.53125 6.015625c-6.6875 9.585938-16.425782 24.152344-24.804688 39.105469-11.023437 19.671875-16.382812 34.054687-16.382812 43.96875 0 29.070312 23.648437 52.722656 52.71875 52.722656 29.074218 0 52.722656-23.652344 52.722656-52.722656 0-9.914063-5.359375-24.296875-16.382812-43.96875zm-36.339844 81.691406c-20.796875 0-37.71875-16.921875-37.71875-37.722656 0-11.804688 14.429687-39.863281 37.71875-73.386719 23.289062 33.523438 37.722656 61.582031 37.722656 73.386719 0 20.800781-16.921875 37.722656-37.722656 37.722656zm0 0" data-original="#000000" class="active-path" data-old_color="#ffb800" fill="#ffb800"></path> <path d="m259.78125 290.042969h-2.660156v-2.65625c0-4.144531-3.355469-7.5-7.5-7.5-4.140625 0-7.5 3.355469-7.5 7.5v2.65625h-2.65625c-4.140625 0-7.5 3.359375-7.5 7.5s3.359375 7.5 7.5 7.5h2.65625v2.65625c0 4.144531 3.359375 7.5 7.5 7.5 4.144531 0 7.5-3.355469 7.5-7.5v-2.65625h2.660156c4.140625 0 7.5-3.359375 7.5-7.5s-3.359375-7.5-7.5-7.5zm0 0" data-original="#000000" class="active-path" data-old_color="#ffb800" fill="#ffb800"></path> <path d="m469.4375 289.070312c4.140625 0 7.5-3.355468 7.5-7.5v-2.65625h2.65625c4.140625 0 7.5-3.355468 7.5-7.5 0-4.140624-3.359375-7.5-7.5-7.5h-2.65625v-2.65625c0-4.140624-3.359375-7.5-7.5-7.5-4.144531 0-7.5 3.359376-7.5 7.5v2.65625h-2.660156c-4.140625 0-7.5 3.359376-7.5 7.5 0 4.144532 3.359375 7.5 7.5 7.5h2.660156v2.65625c0 4.144532 3.355469 7.5 7.5 7.5zm0 0" data-original="#000000" class="active-path" data-old_color="#ffb800" fill="#ffb800"></path> <path d="m229.4375 356.070312h-2.65625v-2.660156c0-4.140625-3.355469-7.5-7.5-7.5-4.140625 0-7.5 3.359375-7.5 7.5v2.660156h-2.65625c-4.140625 0-7.5 3.355469-7.5 7.5 0 4.140626 3.359375 7.5 7.5 7.5h2.65625v2.65625c0 4.140626 3.359375 7.5 7.5 7.5 4.144531 0 7.5-3.359374 7.5-7.5v-2.65625h2.65625c4.144531 0 7.5-3.359374 7.5-7.5 0-4.144531-3.355469-7.5-7.5-7.5zm0 0" data-original="#000000" class="active-path" data-old_color="#ffb800" fill="#ffb800"></path> </g> </svg> 