<?xml version="1.0" encoding="UTF-8"?> <svg xmlns="http://www.w3.org/2000/svg" height="512px" viewBox="0 0 512 512" width="512px" class=""> <g> <path d="m498.5 235h-33.960938c-3.710937 0-7.296874 1.550781-9.835937 4.253906-2.542969 2.703125-3.867187 6.378906-3.640625 10.082032.960938 15.445312 1.882812 28.84375 2.554688 38.628906 1.144531 16.5625 1.691406 24.714844 1.691406 29.125 0 28.070312-22.203125 50.910156-49.5 50.910156-27.292969 0-49.5-22.839844-49.5-50.910156 0-.257813.054687-26.273438 3.269531-67.535156.289063-3.742188-1.003906-7.46875-3.554687-10.226563-2.546876-2.75-6.15625-4.328125-9.90625-4.328125h-31.398438c-3.710938 0-7.296875 1.550781-9.835938 4.253906-2.542968 2.707032-3.867187 6.378906-3.636718 10.082032.882812 14.195312 1.746094 26.75 2.4375 36.839843l.125 1.785157c1.125 16.46875 1.691406 24.734374 1.691406 29.128906 0 28.070312-22.207031 50.910156-49.5 50.910156-27.296875 0-49.5-22.839844-49.5-50.910156 0-.257813.054688-26.269532 3.265625-67.535156.292969-3.742188-1.003906-7.46875-3.550781-10.226563-2.546875-2.75-6.15625-4.328125-9.90625-4.328125h-27.589844c-3.710938 0-7.296875 1.550781-9.835938 4.253906-2.542968 2.703125-3.867187 6.378906-3.636718 10.082032.890625 14.328124 1.761718 26.972656 2.457031 37.132812l.105469 1.492188c1.125 16.460937 1.691406 24.722656 1.691406 29.128906 0 28.070312-22.207031 50.910156-49.5 50.910156-27.296875 0-49.5-22.839844-49.5-50.910156 0-.257813.054688-26.269532 3.265625-67.535156.292969-3.742188-1.003906-7.46875-3.550781-10.226563-2.546875-2.75-6.15625-4.328125-9.90625-4.328125h-36.808594c-7.445312 0-13.5 6.054688-13.5 13.5v167.167969c0 4.140625 3.359375 7.5 7.5 7.5s7.5-3.359375 7.5-7.5v-165.667969h33.6875c-3.152344 41.109375-3.1875 66.832031-3.1875 67.089844 0 36.34375 28.933594 65.910156 64.5 65.910156s64.5-29.566406 64.5-65.910156c0-4.917969-.542969-12.828125-1.726562-30.15625l-.105469-1.496094c-.671875-9.757812-1.5-21.8125-2.351563-35.4375h24.371094c-3.152344 41.109375-3.1875 66.832031-3.1875 67.089844 0 36.34375 28.933594 65.910156 64.5 65.910156s64.5-29.566406 64.5-65.910156c0-4.90625-.539062-12.816406-1.726562-30.152344l-.125-1.789062c-.664063-9.6875-1.488282-21.652344-2.332032-35.148438h28.179688c-3.148438 41.105469-3.1875 66.832031-3.1875 67.089844 0 36.34375 28.9375 65.910156 64.5 65.910156 35.566406 0 64.5-29.566406 64.5-65.910156 0-4.902344-.5625-13.246094-1.726563-30.152344-.648437-9.425781-1.527343-22.210938-2.449219-36.933594h30.867188v247h-482v-49.667968c0-4.144532-3.359375-7.5-7.5-7.5s-7.5 3.355468-7.5 7.5v51.164062c0 7.441406 6.054688 13.5 13.5 13.5h485c7.445312 0 13.5-6.058594 13.5-13.5v-250c0-7.445312-6.054688-13.5-13.5-13.5zm0 0" data-original="#000000" class="active-path" data-old_color="#ffb800" fill="#ffb800"></path> <path d="m110 357c21.230469 0 38.5-17.902344 38.5-39.90625 0-4.140625-.664062-13.78125-1.671875-28.375-2.550781-37.035156-7.304687-105.972656-8.359375-188.734375-.050781-4.105469-3.398438-7.402344-7.496094-7.402344-.035156 0-.066406 0-.101562 0-4.140625.054688-7.457032 3.453125-7.402344 7.597657 1.058594 83.179687 5.832031 152.390624 8.394531 189.574218.949219 13.769532 1.636719 23.71875 1.636719 27.339844 0 13.734375-10.542969 24.90625-23.5 24.90625s-23.5-11.171875-23.5-24.90625c0-1.484375 1.089844-138.609375 36.828125-268.433594-.050781 6.449219-.070313 12.929688-.070313 19.425782 0 4.140624 3.359376 7.496093 7.5 7.496093h.003907c4.140625 0 7.5-3.359375 7.496093-7.503906-.007812-19.726563.222657-39.332031.6875-58.265625.117188-4.777344-3.183593-8.84375-7.851562-9.667969-4.625-.8125-9.078125 1.847657-10.589844 6.335938-47.671875 141.640625-49.003906 308.960937-49.003906 310.613281 0 22.003906 17.269531 39.90625 38.5 39.90625zm0 0" data-original="#000000" class="active-path" data-old_color="#ffb800" fill="#ffb800"></path> <path d="m405.8125 357c21.230469 0 38.5-17.902344 38.5-39.90625 0-4.140625-.664062-13.78125-1.671875-28.375-3.519531-51.085938-10.851563-157.394531-7.882813-278.910156.117188-4.777344-3.1875-8.839844-7.851562-9.664063-4.628906-.808593-9.078125 1.847657-10.589844 6.335938-15.136718 44.980469-27.167968 97.101562-35.753906 154.917969-.609375 4.097656 2.21875 7.910156 6.316406 8.519531 4.09375.597656 7.914063-2.21875 8.523438-6.316407 6.164062-41.519531 14.117187-80.015624 23.734375-114.933593-.804688 105.527343 5.386719 195.34375 8.539062 241.085937.949219 13.769532 1.636719 23.71875 1.636719 27.339844 0 13.734375-10.542969 24.90625-23.5 24.90625s-23.5-11.171875-23.5-24.90625c0-13.769531 1.578125-62.46875 8.796875-121.683594.5-4.113281-2.429687-7.855468-6.539063-8.355468-4.121093-.5-7.851562 2.425781-8.351562 6.539062-7.308594 59.957031-8.90625 109.480469-8.90625 123.5 0 22.003906 17.273438 39.90625 38.5 39.90625zm0 0" data-original="#000000" class="active-path" data-old_color="#ffb800" fill="#ffb800"></path> <path d="m256 357c21.230469 0 38.5-17.902344 38.5-39.90625 0-4.140625-.664062-13.78125-1.671875-28.375-3.519531-51.085938-10.851563-157.394531-7.882813-278.910156.117188-4.777344-3.1875-8.839844-7.851562-9.664063-4.628906-.808593-9.078125 1.847657-10.589844 6.335938-47.671875 141.640625-49.003906 308.960937-49.003906 310.613281 0 22.003906 17.269531 39.90625 38.5 39.90625zm13.324219-308.324219c-.804688 105.527344 5.386719 195.335938 8.539062 241.078125.949219 13.769532 1.636719 23.71875 1.636719 27.339844 0 13.734375-10.542969 24.90625-23.5 24.90625s-23.5-11.171875-23.5-24.90625c0-1.480469 1.09375-138.597656 36.824219-268.417969zm0 0" data-original="#000000" class="active-path" data-old_color="#ffb800" fill="#ffb800"></path> <path d="m81.5 413c0 4.140625-3.359375 7.5-7.5 7.5s-7.5-3.359375-7.5-7.5c0-4.144531 3.359375-7.5 7.5-7.5s7.5 3.355469 7.5 7.5zm0 0" data-original="#000000" class="active-path" data-old_color="#ffb800" fill="#ffb800"></path> <path d="m129.421875 465.667969c0 4.140625-3.359375 7.5-7.5 7.5-4.144531 0-7.5-3.359375-7.5-7.5 0-4.144531 3.355469-7.5 7.5-7.5 4.140625 0 7.5 3.355469 7.5 7.5zm0 0" data-original="#000000" class="active-path" data-old_color="#ffb800" fill="#ffb800"></path> <path d="m189.609375 399c0 4.140625-3.359375 7.5-7.5 7.5s-7.5-3.359375-7.5-7.5c0-4.144531 3.359375-7.5 7.5-7.5s7.5 3.355469 7.5 7.5zm0 0" data-original="#000000" class="active-path" data-old_color="#ffb800" fill="#ffb800"></path> <path d="m229.605469 455.746094c0 4.144531-3.359375 7.5-7.5 7.5-4.144531 0-7.5-3.355469-7.5-7.5 0-4.140625 3.355469-7.5 7.5-7.5 4.140625 0 7.5 3.359375 7.5 7.5zm0 0" data-original="#000000" class="active-path" data-old_color="#ffb800" fill="#ffb800"></path> <path d="m324.472656 452.082031c0 4.140625-3.359375 7.5-7.5 7.5-4.144531 0-7.5-3.359375-7.5-7.5 0-4.144531 3.355469-7.5 7.5-7.5 4.140625 0 7.5 3.355469 7.5 7.5zm0 0" data-original="#000000" class="active-path" data-old_color="#ffb800" fill="#ffb800"></path> <path d="m294.5 413c0 4.140625-3.359375 7.5-7.5 7.5s-7.5-3.359375-7.5-7.5c0-4.144531 3.359375-7.5 7.5-7.5s7.5 3.355469 7.5 7.5zm0 0" data-original="#000000" class="active-path" data-old_color="#ffb800" fill="#ffb800"></path> <path d="m393.027344 468.414062c0 4.140626-3.355469 7.5-7.5 7.5-4.140625 0-7.5-3.359374-7.5-7.5 0-4.140624 3.359375-7.5 7.5-7.5 4.144531 0 7.5 3.359376 7.5 7.5zm0 0" data-original="#000000" class="active-path" data-old_color="#ffb800" fill="#ffb800"></path> <path d="m344.347656 382.597656c0 4.140625-3.359375 7.5-7.5 7.5-4.144531 0-7.5-3.359375-7.5-7.5 0-4.144531 3.355469-7.5 7.5-7.5 4.140625 0 7.5 3.355469 7.5 7.5zm0 0" data-original="#000000" class="active-path" data-old_color="#ffb800" fill="#ffb800"></path> <path d="m437.5625 413c0 4.140625-3.355469 7.5-7.5 7.5-4.140625 0-7.5-3.359375-7.5-7.5 0-4.144531 3.359375-7.5 7.5-7.5 4.144531 0 7.5 3.355469 7.5 7.5zm0 0" data-original="#000000" class="active-path" data-old_color="#ffb800" fill="#ffb800"></path> </g> </svg> 