<?xml version="1.0" encoding="UTF-8"?> <svg xmlns="http://www.w3.org/2000/svg" xmlns:xlink="http://www.w3.org/1999/xlink" id="Capa_1" x="0px" y="0px" viewBox="0 0 512.001 512.001" style="enable-background:new 0 0 512.001 512.001;" xml:space="preserve" width="512px" height="512px" class=""><g><g> <g> <path d="M87.8,162.925c-9.869,0-17.897,8.029-17.897,17.897c0,9.869,8.029,17.898,17.897,17.898 c9.869,0,17.898-8.029,17.898-17.898C105.698,170.954,97.669,162.925,87.8,162.925z M87.8,183.698 c-1.585,0-2.874-1.29-2.874-2.875c0-1.585,1.289-2.874,2.874-2.874c1.585,0,2.875,1.289,2.875,2.874 C90.676,182.408,89.386,183.698,87.8,183.698z" data-original="#000000" class="active-path" data-old_color="#ffb800" fill="#ffb800"></path> </g> </g><g> <g> <path d="M180.475,162.925c-9.869,0-17.897,8.029-17.897,17.897c0,9.869,8.029,17.898,17.897,17.898 c9.868,0,17.897-8.029,17.897-17.898C198.371,170.954,190.344,162.925,180.475,162.925z M180.475,183.698 c-1.585,0-2.874-1.29-2.874-2.875c0-1.585,1.289-2.874,2.874-2.874s2.874,1.289,2.874,2.874 C183.349,182.408,182.06,183.698,180.475,183.698z" data-original="#000000" class="active-path" data-old_color="#ffb800" fill="#ffb800"></path> </g> </g><g> <g> <path d="M103.779,144.551H68.626c-4.149,0-7.511,3.362-7.511,7.511s3.362,7.511,7.511,7.511h35.153 c4.149,0,7.511-3.362,7.511-7.511S107.928,144.551,103.779,144.551z" data-original="#000000" class="active-path" data-old_color="#ffb800" fill="#ffb800"></path> </g> </g><g> <g> <path d="M199.649,144.551h-35.153c-4.149,0-7.511,3.362-7.511,7.511s3.362,7.511,7.511,7.511h35.153 c4.149,0,7.511-3.362,7.511-7.511S203.798,144.551,199.649,144.551z" data-original="#000000" class="active-path" data-old_color="#ffb800" fill="#ffb800"></path> </g> </g><g> <g> <path d="M502.413,217.757v-12.808c0-68.458-55.695-124.153-124.153-124.153c-54.456,0-100.832,35.242-117.526,84.116 c-0.998-1.023-2.083-1.96-3.242-2.801v-48.345c0-17.815-6.616-34.865-18.632-48.009c-12.049-13.182-28.451-21.247-46.186-22.71 c-44.275-3.651-86.861-1.086-126.622,7.626L11.285,23.117c-2.329-1.17-5.099-1.053-7.317,0.315 c-2.219,1.367-3.57,3.788-3.57,6.395v65.941c0,10.589,3.926,20.271,10.386,27.692v38.369C4.272,166.364,0,173.9,0,182.42 c0,13.834,11.254,25.087,25.088,25.087h7.75c3.902,40.201,31.284,73.626,68.223,86.354v21.657H80.351 c-26.466,0-47.997,21.531-47.997,47.997v1.147c0,4.149,3.362,7.511,7.511,7.511s7.511-3.362,7.511-7.511v-1.147 c0-18.182,14.793-32.975,32.975-32.975h22.497c4.461,12.998,16.797,22.37,31.288,22.37s26.828-9.372,31.288-22.37h22.498 c18.182,0,32.974,14.793,32.974,32.975v55.064h-25.125v-8.468c0-4.149-3.362-7.511-7.511-7.511s-7.511,3.362-7.511,7.511v8.468 H87.526v-8.468c0-4.149-3.362-7.511-7.511-7.511s-7.511,3.362-7.511,7.511v8.468H47.377v-23.873c0-4.149-3.362-7.511-7.511-7.511 c-4.149,0-7.511,3.362-7.511,7.511v31.385c0,4.149,3.362,7.511,7.511,7.511h188.543c4.149,0,7.511-3.362,7.511-7.511v-62.575 c0-26.466-21.531-47.997-47.996-47.997h-20.711v-21.657c36.94-12.728,64.323-46.154,68.224-86.354h7.352 c4.071,0,7.916-0.98,11.32-2.71c0,0.05-0.002,0.101-0.002,0.151v12.867c-5.753,4.187-9.504,10.969-9.504,18.615v4.147 c0,7.681,3.787,14.492,9.587,18.674v68.686c0,5.476,2.303,10.751,6.319,14.474c3.652,3.387,8.48,5.263,13.433,5.263 c0.492,0,0.985-0.019,1.479-0.056l54.911-4.165c4.74,2.541,9.702,4.717,14.851,6.492v21.657h-20.468 c-26.466,0-47.997,21.531-47.997,47.997v5.153c0,4.149,3.362,7.511,7.511,7.511s7.511-3.362,7.511-7.511v-5.153 c0-18.182,14.793-32.975,32.975-32.975h6.089v14.33c0,19.412,15.792,35.203,35.202,35.203c4.629,0,8.881-1.61,12.253-4.286 c3.372,2.675,7.625,4.286,12.254,4.286c19.411,0,35.202-15.792,35.202-35.203v-14.33h6.571c18.182,0,32.974,14.793,32.974,32.975 v55.064h-25.366v-8.468c0-4.149-3.362-7.511-7.511-7.511s-7.511,3.362-7.511,7.511v8.468h-93.225v-8.468 c0-4.149-3.362-7.511-7.511-7.511s-7.511,3.362-7.511,7.511v8.468h-24.886v-19.867c0-4.149-3.362-7.511-7.511-7.511 s-7.511,3.362-7.511,7.511v27.379c0,4.149,3.362,7.511,7.511,7.511h188.544c4.149,0,7.511-3.362,7.511-7.511v-62.575 c0-26.466-21.531-47.997-47.996-47.997h-20.95v-21.657c5.153-1.776,10.119-3.954,14.862-6.497l54.985,4.171 c0.493,0.037,0.985,0.056,1.479,0.056c4.951,0,9.78-1.876,13.432-5.263c4.016-3.724,6.319-8.998,6.319-14.474v-68.686 c5.801-4.182,9.587-10.992,9.587-18.674v-4.147C512,228.749,508.213,221.939,502.413,217.757z M31.956,192.485h-6.868 c-5.55,0-10.066-4.516-10.066-10.065s4.516-10.065,10.066-10.065h6.868V192.485z M32.355,157.333h-6.549v-22.838 c2.101,0.916,4.287,1.669,6.549,2.236V157.333z M152.192,319.834c0,9.955-8.099,18.054-18.054,18.054s-18.054-8.099-18.054-18.054 v-22.055c5.861,1.054,11.895,1.604,18.054,1.604c6.159,0,12.193-0.551,18.054-1.604V319.834z M203.041,138.001h17.858V197.6 c0,47.84-38.921,86.761-86.762,86.761c-47.84,0-86.761-38.921-86.761-86.761v-59.598h125.62c4.149,0,7.511-3.362,7.511-7.511 s-3.362-7.511-7.511-7.511H42.632c-15.005,0-27.213-12.207-27.213-27.212V42.015l46.276,23.284 c1.557,0.782,3.337,0.999,5.036,0.615c39.022-8.846,80.977-11.501,124.708-7.895c28.613,2.359,51.029,26.848,51.029,55.747v9.214 h-39.427c-4.149,0-7.511,3.362-7.511,7.511C195.53,134.639,198.892,138.001,203.041,138.001z M235.921,138.002h6.548v19.332 h-6.548V138.002z M242.79,192.485h-6.868v-20.13h6.868c5.55,0,10.066,4.516,10.066,10.065S248.341,192.485,242.79,192.485z M259.626,240.577v-4.147c0-4.407,3.584-7.991,7.991-7.991h8.86v20.13h-8.86v-0.001 C263.211,248.568,259.626,244.984,259.626,240.577z M274.286,332.639c-1.782,0.137-2.998-0.722-3.563-1.244 c-0.564-0.523-1.51-1.667-1.51-3.458v-64.346h7.747c2.551,26.287,15.143,49.674,33.882,66.275L274.286,332.639z M370.748,416.391 c0,2.616-2.127,4.744-4.742,4.744c-11.128,0-20.18-9.053-20.18-20.181v-14.33h1.146c3.665,10.68,12.648,18.904,23.776,21.499 V416.391z M360.207,375.917v-22.056c5.862,1.054,11.895,1.604,18.055,1.604s12.193-0.551,18.054-1.604v22.056h0 c0,9.955-8.1,18.054-18.055,18.054S360.207,385.872,360.207,375.917z M410.695,400.954L410.695,400.954 c0,11.128-9.052,20.181-20.18,20.181c-2.615,0-4.743-2.128-4.743-4.743v-8.268c11.129-2.595,20.112-10.819,23.777-21.5h1.146 V400.954z M378.261,340.444c-15.372,0-29.819-4.024-42.354-11.064c-0.144-0.087-0.292-0.169-0.443-0.248 c-25.433-14.482-42.868-41.45-43.909-72.503l-0.055-43.917c4.671-1.596,9.279-3.156,13.815-4.693 c6.042-2.045,11.959-4.048,17.738-6.039c3.922-1.351,6.007-5.625,4.655-9.547c-1.351-3.922-5.623-6.01-9.547-4.655 c-5.755,1.982-11.647,3.977-17.664,6.014c-6.193,2.096-12.516,4.236-18.954,6.453c-3.03,1.044-5.066,3.897-5.066,7.103v6.071 h-7.347v-8.468c0-60.175,48.956-109.131,109.131-109.131c60.174,0,109.13,48.956,109.13,109.131v8.468h-7.347v-26.843 c0-3.398-2.28-6.371-5.562-7.254c-28.141-7.562-47.497-13.843-59.676-31.537c-1.211-1.761-3.115-2.921-5.235-3.193 c-2.119-0.273-4.254,0.373-5.869,1.773c-13.044,11.293-30.762,20.932-57.444,31.252c-3.869,1.496-5.793,5.846-4.296,9.714 c1.496,3.869,5.846,5.792,9.714,4.296c24.518-9.483,42.095-18.581,55.72-28.93c13.884,15.873,33.074,22.829,57.626,29.617v61.369 C465.021,301.523,426.101,340.444,378.261,340.444z M487.391,327.937c0,1.791-0.945,2.935-1.51,3.458 c-0.564,0.522-1.761,1.375-3.562,1.244l-36.633-2.779c18.735-16.602,31.324-39.986,33.875-66.269h7.831V327.937z M496.978,240.577 c0,4.406-3.584,7.991-7.991,7.991h-8.943v-20.13h8.943c0.508,0,1.003,0.053,1.485,0.144c0.909,0.667,1.972,1.132,3.129,1.334 c2.04,1.449,3.377,3.826,3.377,6.514V240.577z" data-original="#000000" class="active-path" data-old_color="#ffb800" fill="#ffb800"></path> </g> </g><g> <g> <path d="M331.924,225.017c-9.869,0-17.898,8.029-17.898,17.897c0,9.869,8.029,17.898,17.898,17.898s17.897-8.029,17.897-17.898 C349.82,233.046,341.791,225.017,331.924,225.017z M331.924,245.79c-1.585,0-2.875-1.29-2.875-2.875 c0-1.585,1.29-2.874,2.875-2.874c1.585,0,2.874,1.289,2.874,2.874C334.798,244.5,333.509,245.79,331.924,245.79z" data-original="#000000" class="active-path" data-old_color="#ffb800" fill="#ffb800"></path> </g> </g><g> <g> <path d="M424.597,225.017c-9.869,0-17.897,8.029-17.897,17.897c0,9.869,8.029,17.898,17.897,17.898 c9.869,0,17.898-8.029,17.898-17.898C442.495,233.046,434.466,225.017,424.597,225.017z M424.597,245.79 c-1.585,0-2.874-1.29-2.874-2.875c0-1.585,1.289-2.874,2.874-2.874c1.585,0,2.875,1.289,2.875,2.874 C427.473,244.5,426.183,245.79,424.597,245.79z" data-original="#000000" class="active-path" data-old_color="#ffb800" fill="#ffb800"></path> </g> </g><g> <g> <path d="M348.257,206.643h-30.045c-4.148,0-7.511,3.362-7.511,7.511c0,4.149,3.362,7.511,7.511,7.511h30.045 c4.149,0,7.511-3.362,7.511-7.511C355.768,210.005,352.406,206.643,348.257,206.643z" data-original="#000000" class="active-path" data-old_color="#ffb800" fill="#ffb800"></path> </g> </g><g> <g> <path d="M437.89,206.427h-30.045c-4.149,0-7.511,3.362-7.511,7.511s3.363,7.511,7.511,7.511h30.045 c4.149,0,7.511-3.362,7.511-7.511S442.039,206.427,437.89,206.427z" data-original="#000000" class="active-path" data-old_color="#ffb800" fill="#ffb800"></path> </g> </g><g> <g> <path d="M154.867,249.072c-2.167-3.537-6.793-4.649-10.33-2.482c-6.983,4.277-13.211,4.277-20.194,0 c-3.536-2.167-8.161-1.057-10.328,2.482c-2.167,3.538-1.056,8.162,2.482,10.328c5.87,3.595,11.908,5.393,17.945,5.393 c6.037,0,12.075-1.798,17.945-5.393C155.921,257.234,157.034,252.609,154.867,249.072z" data-original="#000000" class="active-path" data-old_color="#ffb800" fill="#ffb800"></path> </g> </g><g> <g> <path d="M398.227,307.158c-2.167-3.537-6.791-4.649-10.328-2.482c-6.983,4.277-13.211,4.277-20.194,0 c-3.537-2.167-8.16-1.057-10.328,2.482c-2.168,3.537-1.057,8.162,2.48,10.328c5.87,3.595,11.908,5.393,17.945,5.393 c6.037,0,12.075-1.798,17.945-5.393C399.282,315.32,400.394,310.696,398.227,307.158z" data-original="#000000" class="active-path" data-old_color="#ffb800" fill="#ffb800"></path> </g> </g></g> </svg> 